# xmcd
#
# Track frame offsets: 
#        150
#        15115
#        30298
#        43250
#        61541
#        77490
#        90713
#        106997
#        119194
#        133798
#        153273
#        173064
#        186667
#        191369
#
# Disc length: 2843 seconds
#
# Revision: 2
# Processed by: cddbd v1.5.2PL0 Copyright (c) Steve Scherf et al.
# Submitted via: ExactAudioCopy v0.95b2
#
DISCID=aa0b190e
DTITLE=Electric Six - Switzerland
DYEAR=2006
DGENRE=Rock
TTITLE0=The Band in Hell
TTITLE1=I Buy the Drugs
TTITLE2=Mr. Woman
TTITLE3=Night Vision
TTITLE4=Infected Girls
TTITLE5=Pulling The Plug on the Party
TTITLE6=Rubber Rocket
TTITLE7=Pink Flamingos
TTITLE8=I Wish This Song Was Louder
TTITLE9=Slices of You
TTITLE10=There's Something Very Wrong With Us So Lets Go Out Tonight
TTITLE11=Germans in Mexico
TTITLE12=Chocolate Pope
TTITLE13=Future is in the Future (Midnight Juggernauts Remix)
EXTD=
EXTT0=
EXTT1=
EXTT2=
EXTT3=
EXTT4=
EXTT5=
EXTT6=
EXTT7=
EXTT8=
EXTT9=
EXTT10=
EXTT11=
EXTT12=
EXTT13=
PLAYORDER=
